<?xml version="1.0" ?><!DOCTYPE svg  PUBLIC '-//W3C//DTD SVG 1.1//EN'  'http://www.w3.org/Graphics/SVG/1.1/DTD/svg11.dtd'><svg enable-background="new 0 0 64 64" height="64px" id="Layer_1" version="1.1" viewBox="0 0 64 64" width="64px" xml:space="preserve" xmlns="http://www.w3.org/2000/svg" xmlns:xlink="http://www.w3.org/1999/xlink"><g><g><path d="    M35.527,25.149c1.988-2.521,4.969-4.185,8.33-4.364c0.199-0.012-0.203,0,0,0c6.348,0,12.078,6.036,12.078,12.557l0,0    c3.998,0.557,7.061,3.646,7.061,7.375c0,4.125-3.744,7.467-8.363,7.467H49.52" fill="none" stroke="#231F20" stroke-linecap="round" stroke-linejoin="round" stroke-miterlimit="10" stroke-width="2"/><path d="    M12.497,48.184L12.497,48.184c-6.348,0-11.494-5.283-11.494-11.801c0-6.059,4.444-11.051,10.167-11.726l0,0    c-0.134-0.8-0.203-1.62-0.203-2.456c0-8.611,7.377-15.591,16.479-15.591c8.595,0,15.654,6.228,16.412,14.175" fill="none" stroke="#231F20" stroke-linecap="round" stroke-linejoin="round" stroke-miterlimit="10" stroke-width="2"/></g><path d="   M23.023,43.807h10.043c1.83,0,3.314-1.482,3.314-3.314c0-1.83-1.484-3.312-3.314-3.312c-0.893,0-1.703,0.353-2.299,0.927" fill="none" stroke="#231F20" stroke-linecap="round" stroke-linejoin="round" stroke-miterlimit="10" stroke-width="2"/><path d="   M17.916,48.191h24.117c1.531,0,2.77-1.238,2.77-2.768c0-1.531-1.238-2.771-2.77-2.771c-0.639,0-1.228,0.217-1.695,0.581" fill="none" stroke="#231F20" stroke-linecap="round" stroke-linejoin="round" stroke-miterlimit="10" stroke-width="2"/><path d="   M19.953,52.498h16.836c1.352,0,2.447,1.096,2.447,2.447c0,1.35-1.096,2.445-2.447,2.445c-0.744,0-1.411-0.332-1.859-0.856" fill="none" stroke="#231F20" stroke-linecap="round" stroke-linejoin="round" stroke-miterlimit="10" stroke-width="2"/></g></svg>