<?xml version="1.0" encoding="utf-8"?>
<!-- Svg Vector Icons : http://www.onlinewebfonts.com/icon -->
<!DOCTYPE svg PUBLIC "-//W3C//DTD SVG 1.1//EN" "http://www.w3.org/Graphics/SVG/1.1/DTD/svg11.dtd">
<svg version="1.1" xmlns="http://www.w3.org/2000/svg" xmlns:xlink="http://www.w3.org/1999/xlink" x="0px" y="0px" viewBox="0 0 1000 1000" enable-background="new 0 0 1000 1000" xml:space="preserve">
<metadata> Svg Vector Icons : http://www.onlinewebfonts.com/icon </metadata>
<g><path d="M99.5,301.7c95.1-81.7,170.3-146.3,374.1-31c97.9,55.4,176.9,76.1,242.7,76.1c115.1,0,189.7-64.1,254.2-119.4c23-19.8,26-54.9,6.6-78.3c-19.4-23.4-53.7-26.5-76.7-6.7c-95.1,81.7-170.2,146.3-374.2,31C257,21.2,130.8,129.6,29.4,216.7c-23,19.8-26,54.8-6.6,78.3C42.1,318.5,76.5,321.6,99.5,301.7L99.5,301.7z M900.4,420.3c-95.1,81.7-170.2,146.3-374.2,31C257,299.2,130.8,407.6,29.4,494.6c-23,19.8-26,54.9-6.6,78.3c19.4,23.4,53.7,26.5,76.7,6.7c95.1-81.7,170.3-146.3,374.1-31.1c97.9,55.4,176.9,76.2,242.7,76.2c115.1,0,189.7-64.1,254.2-119.5c23-19.8,26-54.8,6.6-78.3C957.8,403.5,923.4,400.5,900.4,420.3L900.4,420.3z M900.4,698.3c-95.1,81.7-170.2,146.3-374.2,31C257,577.2,130.7,685.5,29.4,772.7c-23,19.8-26,54.9-6.6,78.3s53.7,26.5,76.7,6.7c95.2-81.7,170.3-146.2,374.2-31.1c97.9,55.4,176.9,76.2,242.7,76.2c115.1,0,189.7-64.1,254.2-119.5c23-19.7,26-54.8,6.6-78.3S923.5,678.5,900.4,698.3L900.4,698.3z"/></g>
</svg>