<?xml version="1.0" ?><!DOCTYPE svg  PUBLIC '-//W3C//DTD SVG 1.1//EN'  'http://www.w3.org/Graphics/SVG/1.1/DTD/svg11.dtd'><svg enable-background="new 0 0 64 64" height="64px" id="Layer_1" version="1.1" viewBox="0 0 64 64" width="64px" xml:space="preserve" xmlns="http://www.w3.org/2000/svg" xmlns:xlink="http://www.w3.org/1999/xlink"><g><line fill="none" stroke="#231F20" stroke-linecap="round" stroke-linejoin="round" stroke-miterlimit="10" stroke-width="2" x1="39.688" x2="54.625" y1="47.191" y2="47.191"/><g><path d="    M54.625,47.191c4.619,0,8.36-3.34,8.36-7.465c0-3.725-3.06-6.817-7.059-7.374l0,0c0-6.518-5.728-12.552-12.073-12.552    c-0.203,0,0.2-0.011,0,0c-3.36,0.182-6.339,1.843-8.327,4.362" fill="none" stroke="#231F20" stroke-linecap="round" stroke-linejoin="round" stroke-miterlimit="10" stroke-width="2"/><path d="    M43.854,19.801c-0.756-7.943-7.813-14.17-16.406-14.17c-9.098,0-16.473,6.978-16.473,15.587c0,0.834,0.07,1.654,0.204,2.452l0,0    c-5.72,0.675-10.164,5.668-10.164,11.724c0,6.512,5.144,11.797,11.49,11.797h2.772" fill="none" stroke="#231F20" stroke-linecap="round" stroke-linejoin="round" stroke-miterlimit="10" stroke-width="2"/></g><polygon fill="none" points="   14.634,58.369 27.541,36.016 40.446,58.369  " stroke="#231F20" stroke-linecap="round" stroke-linejoin="round" stroke-miterlimit="10" stroke-width="2"/><line fill="none" stroke="#231F20" stroke-linecap="round" stroke-linejoin="round" stroke-miterlimit="10" stroke-width="2" x1="27.541" x2="27.541" y1="43.355" y2="50.102"/><line fill="none" stroke="#231F20" stroke-linecap="round" stroke-linejoin="round" stroke-miterlimit="10" stroke-width="2" x1="27.541" x2="27.541" y1="53.785" y2="54.838"/></g></svg>